# xmcd CD database file generated by Grip 3.3.1
# 
# Track frame offsets:
#       150
#       20105
#       40845
#       50905
#       63090
#       72562
#       82037
#       101255
#       114670
#       125595
#       145457
#       189150
#       207257
# 
# Disc length: 3015 seconds
# 
# Revision: 1
# Processed by: cddbd v1.5.2PL0 Copyright (c) Steve Scherf et al.
# Submitted via: Grip 3.3.1
# 
DISCID=c20bc50d
DTITLE=Carlos Bica and AZUL - Believer
DYEAR=2006
DGENRE=Jazz
TTITLE0=Iceland
TTITLE1=Alguem olhará por ti
TTITLE2=White Wall
TTITLE3=P Beat
TTITLE4=Smile
TTITLE5=Catch The Cat
TTITLE6=Luscious
TTITLE7=Marinha Grunge
TTITLE8=Portuguese Seaman
TTITLE9=John Wayne
TTITLE10=Believer
TTITLE11=Vergiss nicht
TTITLE12=Through The Mirror
EXTD=YEAR: 2006
EXTT0=
EXTT1=
EXTT2=
EXTT3=
EXTT4=
EXTT5=
EXTT6=
EXTT7=
EXTT8=
EXTT9=
EXTT10=
EXTT11=
EXTT12=
PLAYORDER=
